<?xml version="1.0" encoding="UTF-8" standalone="no"?>
<svg
   version="1.1"
   viewBox="0 0 400 400"
   id="svg17"
   sodipodi:docname="Logo-oranje.svg"
   inkscape:version="1.4 (86a8ad7, 2024-10-11)"
   xmlns:inkscape="http://www.inkscape.org/namespaces/inkscape"
   xmlns:sodipodi="http://sodipodi.sourceforge.net/DTD/sodipodi-0.dtd"
   xmlns="http://www.w3.org/2000/svg"
   xmlns:svg="http://www.w3.org/2000/svg">
  <sodipodi:namedview
     id="namedview17"
     pagecolor="#ffffff"
     bordercolor="#000000"
     borderopacity="0.25"
     inkscape:showpageshadow="2"
     inkscape:pageopacity="0.0"
     inkscape:pagecheckerboard="0"
     inkscape:deskcolor="#d1d1d1"
     inkscape:zoom="2.9175"
     inkscape:cx="157.1551"
     inkscape:cy="193.65895"
     inkscape:window-width="2560"
     inkscape:window-height="1406"
     inkscape:window-x="1909"
     inkscape:window-y="-11"
     inkscape:window-maximized="1"
     inkscape:current-layer="g17" />
  <defs
     id="defs1">
    <style
       id="style1">
      .cls-1 {
        fill: #f29100;
      }
    </style>
  </defs>
  <!-- Generator: Adobe Illustrator 28.7.0, SVG Export Plug-In . SVG Version: 1.2.0 Build 136)  -->
  <g
     id="g17">
    <g
       id="Laag_1">
      <path
         class="cls-1"
         d="M271.7,317H126.4l-72.1-126.4L126.4,63.8h145.6l73.7,126.6-74,126.6ZM129.9,311h138.3l70.5-120.6-70.2-120.6h-138.7l-68.7,120.7,68.7,120.4h0Z"
         id="path1" />
      <g
         id="g16">
        <path
           class="cls-1"
           d="M117.9,180.8l-9.2-25c-.2-.6-.7-.9-1.3-.9h-.8v-4.8h3.6c1.1,0,1.8.2,2.4.5.5.4.9,1,1.3,2l5.9,17.1c.2.5.4,1.1.6,1.9s.4,1.4.5,1.9v.7h.2c.4-1.9.8-3.4,1.2-4.5l5.9-17.1c.3-1,.8-1.6,1.2-2,.5-.4,1.3-.5,2.3-.5h3.6v4.8h-.8c-.7,0-1.1.3-1.3.9l-9.2,25h-6Z"
           id="path2" />
        <path
           class="cls-1"
           d="M134.7,169.8c0-3.4,1-6.2,3.1-8.3,2.1-2.1,4.8-3.2,8.1-3.2s5.4,1,7.2,3c1.7,2,2.6,4.5,2.6,7.5v2h-15.4c.2,1.9.9,3.3,2.2,4.4s2.7,1.6,4.5,1.6,2.1-.2,3.1-.6c1-.4,1.8-.8,2.3-1.2l.8-.6,2.3,3.8c0,0-.2.2-.4.4-.2.2-.6.4-1.1.8-.6.4-1.2.7-1.8,1-.6.3-1.4.6-2.4.8-1,.2-2,.4-3.1.4-3.6,0-6.4-1.1-8.6-3.4-2.2-2.2-3.3-5-3.3-8.2h0ZM140.5,167h9.6c0-1.3-.4-2.4-1.2-3.2s-1.8-1.2-2.9-1.2-2.6.4-3.5,1.2c-.9.8-1.6,1.9-1.9,3.3h0Z"
           id="path3" />
        <path
           class="cls-1"
           d="M161,180.8v-16.4c0-.6-.3-.9-.9-.9h-1.7v-4.7h5.1c1.9,0,2.9.8,2.9,2.5v1.6c0,0,0,0,0,0,.6-1.2,1.6-2.3,2.9-3.2,1.3-.9,2.9-1.4,4.9-1.4,5.1,0,7.7,2.8,7.7,8.4v8.6c0,.6.3.9.9.9h1.7v4.6h-5.2c-1,0-1.8-.2-2.2-.7s-.7-1.2-.7-2.2v-10.1c0-1.5-.2-2.6-.8-3.4-.5-.8-1.4-1.1-2.7-1.1s-2.7.4-3.7,1.2c-1.1.8-1.8,1.9-2.2,3.3-.3.9-.4,1.9-.4,2.9v10.1h-5.5Z"
           id="path4" />
        <path
           class="cls-1"
           d="M188.7,180.8v-25.1c0-.6-.3-.9-.9-.9h-1.7v-4.7h5.2c2,0,2.9,1,2.9,2.9v9.6c0,0,0,0,0,0,.6-1.2,1.5-2.2,2.9-3.1,1.3-.9,2.9-1.3,4.7-1.3,5.1,0,7.7,2.8,7.7,8.4v8.6c0,.6.3.9.9.9h1.7v4.6h-5.2c-1,0-1.8-.2-2.2-.7s-.7-1.2-.7-2.2v-10.1c0-1.5-.3-2.6-.8-3.4-.5-.8-1.4-1.1-2.7-1.1s-2.6.4-3.7,1.3-1.8,1.9-2.2,3.3c-.2.8-.4,1.7-.4,2.9v10.1h-5.5,0Z"
           id="path5" />
        <path
           class="cls-1"
           d="M217.8,178.1c-2.3-2.2-3.5-4.9-3.5-8.3s1.2-6.1,3.5-8.3c2.3-2.2,5.2-3.3,8.6-3.3s6.3,1.1,8.6,3.3c2.3,2.2,3.5,4.9,3.5,8.3s-1.2,6.1-3.5,8.3c-2.3,2.2-5.2,3.3-8.6,3.3s-6.3-1.1-8.6-3.3ZM219.9,169.8c0,2,.6,3.7,1.9,4.9,1.3,1.3,2.8,1.9,4.6,1.9s3.4-.6,4.7-1.9,1.9-2.9,1.9-4.9-.6-3.6-1.9-4.9c-1.3-1.3-2.8-1.9-4.6-1.9s-3.4.6-4.6,1.9-1.9,2.9-1.9,4.9Z"
           id="path6" />
        <path
           class="cls-1"
           d="M243.5,180.8v-16.4c0-.6-.3-.9-.9-.9h-1.7v-4.7h5c2,0,2.9.9,2.9,2.7v2.7c0,0,0,0,0,0,.5-1.6,1.4-3,2.7-4.1s2.7-1.6,4.4-1.6h1v5.5c-.4,0-.8,0-1.3,0-1.3,0-2.5.4-3.6,1.2-1.1.8-1.9,1.9-2.4,3.5-.3,1.1-.5,2.3-.5,3.6v8.7h-5.5Z"
           id="path7" />
        <path
           class="cls-1"
           d="M258.8,177.4l2.6-3.6c.2.2.5.5.9.9s1.1.8,2.3,1.4,2.3.9,3.4.9,1.6-.2,2.2-.5c.5-.4.8-.9.8-1.6s-.4-1.1-1.2-1.5-1.8-.9-2.9-1.4c-1.1-.4-2.3-.9-3.4-1.5-1.1-.6-2.1-1.3-2.9-2.3s-1.2-2.2-1.2-3.5c0-2.1.8-3.7,2.4-4.8,1.6-1.1,3.7-1.6,6.1-1.6s1.7,0,2.5.2c.8.1,1.6.4,2.5.7.8.3,1.5.8,2,1.4.5.6.8,1.4.8,2.2v2.3h-4.8v-1.1c0-.5-.3-.9-.9-1.1-.6-.3-1.2-.4-1.9-.4-1,0-1.8.2-2.4.5s-.9.8-.9,1.5.4,1.2,1.2,1.7,1.8.9,2.9,1.3c1.1.4,2.3.9,3.4,1.4s2.1,1.3,2.9,2.2,1.2,2.1,1.2,3.5c0,2.1-.8,3.7-2.4,4.9-1.6,1.2-3.6,1.8-6.1,1.8s-3.5-.3-5-1c-1.5-.7-2.6-1.3-3.2-1.9l-1-1h0Z"
           id="path8" />
        <path
           class="cls-1"
           d="M281.6,172.8v-9.6h-2.9v-4.4h3v-6h5.4v6h5v4.4h-5v8.9c0,1.6.5,2.7,1.4,3.3.9.6,1.9.9,3,.9h1c0,0,0,4.7,0,4.7-.5,0-1,.1-1.7.1s-1.5,0-2.2-.1c-.7-.1-1.5-.3-2.4-.7-.9-.4-1.7-.8-2.3-1.4-.6-.6-1.2-1.4-1.6-2.4-.5-1.1-.7-2.3-.7-3.7h0Z"
           id="path9" />
        <path
           class="cls-1"
           d="M120.1,224.1v-25.9h-2.8v-4.8h17.5c1,0,1.8.2,2.2.7.5.5.7,1.2.7,2.2v4.7h-5.1v-1.9c0-.6-.3-.9-.9-.9h-5.9v8.7h9.8v4.8h-9.8v12.4h-5.7Z"
           id="path10" />
        <path
           class="cls-1"
           d="M143.2,221.4c-2.3-2.2-3.5-4.9-3.5-8.3s1.2-6.1,3.5-8.3,5.2-3.3,8.6-3.3,6.3,1.1,8.6,3.3,3.5,4.9,3.5,8.3-1.2,6.1-3.5,8.3c-2.3,2.2-5.2,3.3-8.6,3.3s-6.3-1.1-8.6-3.3ZM145.3,213.1c0,2,.6,3.7,1.9,4.9,1.3,1.3,2.8,1.9,4.6,1.9s3.4-.6,4.7-1.9c1.3-1.3,1.9-2.9,1.9-4.9s-.6-3.6-1.9-4.9c-1.3-1.3-2.8-1.9-4.6-1.9s-3.4.6-4.6,1.9-1.9,2.9-1.9,4.9h0Z"
           id="path11" />
        <path
           class="cls-1"
           d="M168.8,216.2v-8.6c0-.6-.3-.9-.9-.9h-1.7v-4.7h5.2c1,0,1.7.2,2.2.7.5.5.7,1.2.7,2.2v10.2c0,1.5.2,2.6.8,3.4.5.8,1.4,1.1,2.7,1.1,1.9,0,3.4-.7,4.5-2.2s1.7-3.2,1.7-5.3v-10.1h5.5v16.5c0,.6.3.9.9.9h1.7v4.6h-5.1c-1.9,0-2.9-.8-2.9-2.5v-1.6s0,0,0,0c-.6,1.3-1.5,2.4-2.9,3.2s-2.9,1.3-4.7,1.3c-5.1,0-7.6-2.8-7.6-8.4h0Z"
           id="path12" />
        <path
           class="cls-1"
           d="M196.5,224.1v-16.4c0-.6-.3-.9-.9-.9h-1.7v-4.7h5c2,0,2.9.9,2.9,2.7v2.7c0,0,0,0,0,0,.5-1.6,1.4-3,2.7-4.1s2.7-1.6,4.4-1.6h1v5.5c-.4,0-.8,0-1.3,0-1.3,0-2.5.4-3.6,1.2-1.1.8-1.9,1.9-2.4,3.5-.3,1.1-.5,2.3-.5,3.6v8.7h-5.5Z"
           id="path13" />
        <path
           class="cls-1"
           d="M210.8,217.7c0-1.1.2-2.1.7-2.9.5-.9,1.1-1.6,1.9-2.1.8-.5,1.7-1,2.6-1.3.9-.4,1.9-.6,3-.8,1.1-.1,2-.2,2.7-.3.7,0,1.5,0,2.2,0h.7v-.2c0-1.6-.3-2.7-1-3.3s-1.7-1-3.1-1-1.4.1-2,.3c-.6.2-.9.6-.9,1.1v1.2h-5.1v-2.3c0-.9.3-1.8.9-2.4s1.4-1.1,2.3-1.4c1-.3,1.8-.5,2.6-.6.8-.1,1.5-.1,2.3-.1,6.3,0,9.5,2.9,9.5,8.8v8.2c0,.6.3.9.9.9h1.7v4.6h-4.9c-.9,0-1.7-.2-2.1-.7-.5-.4-.7-1-.7-1.8v-.9s0,0,0,0c0,.1-.1.3-.2.4s-.3.5-.7.9-.8.8-1.2,1.2-1.1.7-1.9.9c-.8.3-1.7.4-2.6.4-2.1,0-3.9-.6-5.3-1.9s-2.2-2.9-2.2-5h0ZM216.4,217.5c0,.8.3,1.4.9,2s1.4.8,2.5.8,2.6-.6,3.6-1.8,1.4-2.5,1.4-4v-.5h-.9c-4.9,0-7.4,1.1-7.4,3.5h0Z"
           id="path14" />
        <path
           class="cls-1"
           d="M235,212.5c0-3.2.9-5.8,2.6-7.9,1.7-2.1,4.1-3.1,7.2-3.1s1.8.1,2.7.3,1.5.5,1.9.8.9.6,1.2.9.6.6.7.8l.2.4h0v-.6c0-.6.2-1,.6-1.4.4-.4,1-.6,1.8-.6h5.1v4.7h-1.7c-.6,0-1,.3-1,.9v15.2c0,1.8-.3,3.4-1,4.8-.7,1.4-1.6,2.5-2.7,3.3-1.1.8-2.4,1.4-3.7,1.8s-2.8.6-4.3.6c-2.8,0-5.4-.6-7.8-1.9l1.7-4.3c1.8,1,3.9,1.5,6.1,1.5s3.3-.4,4.5-1.3,1.8-2.2,1.8-4.1v-2.2s0,0,0,0c-1.3,1.9-3.4,2.9-6.1,2.9s-5.5-1.1-7.2-3.2c-1.8-2.1-2.7-4.8-2.7-7.9h0ZM246.1,219c1.5,0,2.7-.5,3.7-1.5,1-1,1.4-2.7,1.4-5,0-4.2-1.8-6.4-5.5-6.4s-2.9.6-3.8,1.6c-.9,1.1-1.3,2.6-1.3,4.5s.5,3.6,1.4,4.8c1,1.2,2.3,1.9,4,1.9h0Z"
           id="path15" />
        <path
           class="cls-1"
           d="M261.5,213.1c0-3.4,1-6.2,3.1-8.3,2.1-2.1,4.8-3.2,8.1-3.2s5.5,1,7.2,3c1.7,2,2.6,4.5,2.6,7.5v2h-15.4c.2,1.9.9,3.3,2.2,4.4s2.7,1.6,4.5,1.6,2.1-.2,3.1-.6c1-.4,1.8-.8,2.3-1.2l.8-.6,2.3,3.8c0,0-.2.2-.4.4-.2.2-.6.4-1.1.8-.6.4-1.2.7-1.8,1-.6.3-1.5.6-2.4.8-1,.2-2,.4-3,.4-3.5,0-6.4-1.1-8.6-3.4-2.2-2.2-3.3-5-3.3-8.2h0ZM267.3,210.2h9.6c0-1.3-.4-2.4-1.2-3.2-.8-.8-1.8-1.3-2.9-1.3s-2.6.4-3.5,1.2c-.9.8-1.6,1.9-1.9,3.3h0Z"
           id="path16" />
      </g>
    </g>
    <path
       style="fill:#ffffff;fill-opacity:1;stroke-width:0.342759"
       d="m 284.96337,180.32884 c -2.25459,-0.77878 -3.36444,-1.7824 -4.40041,-3.97923 -0.74816,-1.5865 -0.80844,-2.14022 -0.81154,-7.45501 l -0.003,-5.74122 h -1.37103 -1.37104 v -2.05655 -2.05656 h 1.37104 1.37103 v -3.08483 -3.08483 h 2.5707 2.57069 v 3.08483 3.08483 h 2.57069 2.5707 v 2.05656 2.05655 h -2.5707 -2.57069 v 4.98102 c 0,6.01628 0.29483,6.99041 2.36658,7.81936 0.7797,0.31198 1.80013,0.56723 2.26761,0.56723 0.8176,0 0.84996,0.0848 0.84996,2.22794 v 2.22793 l -1.79949,-0.0112 c -0.98972,-0.006 -2.61455,-0.29273 -3.61075,-0.63683 z"
       id="path18" />
    <path
       style="fill:#f9f9f9;fill-opacity:1;stroke-width:0.342759"
       d="m 261.08459,180.12213 c -1.12181,-0.46115 -2.47494,-1.27373 -3.00694,-1.80574 l -0.96728,-0.96728 1.12332,-1.57998 1.12333,-1.57998 1.02672,0.8257 c 1.27352,1.02419 4.30418,2.19166 5.68935,2.19166 1.8097,0 3.03432,-0.90935 3.0442,-2.2605 0.008,-1.03068 -0.77216,-1.5866 -4.52704,-3.22779 -1.83295,-0.80115 -3.93561,-1.97277 -4.67259,-2.60359 -2.44713,-2.09466 -2.98098,-5.0269 -1.39116,-7.64116 2.02596,-3.33141 10.4873,-4.01547 13.73833,-1.11067 0.85617,0.76499 1.09162,1.28674 1.22984,2.72525 l 0.17095,1.77913 h -2.27154 c -2.02094,0 -2.27154,-0.0735 -2.27154,-0.66608 0,-1.0474 -1.31866,-1.73323 -3.33248,-1.73323 -1.97075,0 -3.17995,0.77694 -3.17995,2.0432 0,1.07202 1.20958,1.92276 4.73175,3.32801 5.47044,2.18255 7.64532,4.91628 6.6238,8.32581 -0.9517,3.17647 -3.70466,4.80816 -8.09934,4.80049 -2.11658,-0.004 -3.20734,-0.19605 -4.78173,-0.84325 z"
       id="path19" />
    <path
       style="fill:#ffffff;fill-opacity:1;stroke-width:0.342759"
       d="m 241.622,172.32219 -0.0916,-8.65467 -1.28535,-0.10638 -1.28534,-0.10638 v -2.20724 -2.20725 h 3.00856 c 4.02407,0 4.53214,0.348 4.53214,3.10427 0,2.03646 0.43669,2.72051 0.80814,1.26591 0.5599,-2.19256 3.90479,-4.68919 6.30411,-4.70541 l 1.11397,-0.008 v 2.5707 2.57069 h -1.21067 c -2.48563,0 -4.70724,1.62455 -5.85911,4.28449 -0.45897,1.05985 -0.62766,2.67413 -0.74325,7.11226 l -0.14954,5.74121 h -2.52525 -2.52526 z"
       id="path20" />
    <path
       style="fill:#ffffff;fill-opacity:1;stroke-width:0.342759"
       d="m 221.21513,180.78821 c -2.58039,-0.69471 -3.75329,-1.38095 -5.59904,-3.2759 -2.29846,-2.35975 -3.15793,-4.7752 -2.97639,-8.36489 0.1118,-2.21066 0.33141,-3.10005 1.12597,-4.55991 1.22903,-2.25813 3.11549,-3.98823 5.61565,-5.15017 1.62048,-0.75312 2.41607,-0.89652 5.01114,-0.90323 2.62705,-0.007 3.37069,0.12606 5.01114,0.89525 2.50588,1.17498 4.38932,2.90498 5.61565,5.15815 1.36437,2.50679 1.59559,6.4296 0.54337,9.21861 -1.35339,3.58729 -4.31609,6.13156 -8.20617,7.04718 -2.41768,0.56906 -3.84193,0.55396 -6.14132,-0.0651 z m 6.51597,-4.85481 c 0.5745,-0.33664 1.51668,-1.19621 2.09373,-1.91016 0.86815,-1.0741 1.07316,-1.67448 1.18808,-3.47938 0.18214,-2.86035 -0.3341,-4.29556 -2.14572,-5.96546 -3.10826,-2.86509 -7.98293,-2.14422 -10.01659,1.48127 -0.98341,1.75317 -1.29713,4.15558 -0.78933,6.04456 0.47024,1.74924 2.50155,3.87836 4.19462,4.39658 1.50041,0.45925 4.20067,0.17941 5.47521,-0.56741 z"
       id="path21" />
    <path
       style="fill:#ffffff;fill-opacity:1;stroke-width:0.342759"
       d="m 186.77876,167.69494 -0.0898,-12.93916 -1.28535,-0.10638 -1.28535,-0.10638 v -2.24033 -2.24033 l 3.28688,0.11878 c 4.63715,0.16757 4.59658,0.10363 4.59658,7.24501 v 5.50787 l 1.23649,-1.44456 c 1.87678,-2.19259 3.57099,-2.94587 6.64698,-2.95538 2.06611,-0.006 2.84095,0.14701 3.94761,0.78153 2.91812,1.67313 3.59309,3.88377 3.59309,11.76802 v 5.0946 h 1.19966 1.19965 v 2.22794 2.22793 h -2.7646 c -2.64025,0 -3.96387,-0.3417 -4.51378,-1.16528 -0.1385,-0.20742 -0.25418,-3.04662 -0.25707,-6.30933 -0.008,-8.70217 -0.51259,-10.00611 -3.8744,-10.00611 -1.90626,0 -2.70928,0.34353 -4.28077,1.83127 -1.72679,1.63476 -2.13286,3.5493 -2.13286,10.05614 v 5.59331 h -2.56657 -2.56657 z"
       id="path22" />
    <path
       style="fill:#ffffff;fill-opacity:1;stroke-width:0.121184"
       d="m 159.05311,172.3232 c 0,-9.81038 0.16507,-8.84641 -1.51479,-8.84641 h -1.03006 v -2.30249 -2.30249 h 2.82582 c 3.13556,0 3.79531,0.10538 4.3444,0.69395 0.52304,0.56067 0.62497,0.88914 0.68377,2.20355 0.0544,1.21536 0.0631,1.24862 0.23946,0.90888 0.96264,-1.8549 3.41976,-3.66417 5.6003,-4.12371 1.38912,-0.29275 3.76013,-0.17718 5.00826,0.24412 1.75697,0.59305 2.86729,1.53589 3.65817,3.10636 0.85339,1.6946 0.92178,2.27669 0.99344,8.45476 0.0531,4.57692 0.0929,5.51858 0.23968,5.66534 0.12761,0.12761 0.47355,0.17601 1.25801,0.17601 h 1.08199 v 2.2419 2.2419 h -3.09407 c -3.31079,0 -3.6094,-0.0449 -4.14087,-0.62225 -0.70281,-0.76353 -0.69697,-0.70512 -0.76809,-7.67883 -0.0731,-7.16359 -0.0747,-7.17825 -0.91377,-8.15851 -0.53335,-0.6231 -1.06937,-0.86424 -2.1213,-0.95433 -1.73066,-0.14821 -3.4296,0.42812 -4.68312,1.58866 -1.17091,1.08406 -1.8381,2.5004 -2.08869,4.43399 -0.0648,0.49989 -0.11947,3.26742 -0.12153,6.15007 l -0.004,5.2412 h -2.72663 -2.72664 z"
       id="path23" />
    <path
       style="fill:#ffffff;fill-opacity:1;stroke-width:0.121184"
       d="m 142.38546,181.36623 c -2.53896,-0.41682 -4.54712,-1.47496 -6.33457,-3.33781 -1.95527,-2.03776 -2.91196,-4.26784 -3.17864,-7.40956 -0.39829,-4.69214 1.46404,-8.56391 5.17554,-10.75989 0.98405,-0.58223 2.66004,-1.16356 3.91948,-1.35949 1.15492,-0.17967 3.81792,-0.0796 4.7857,0.17982 3.30672,0.88643 5.84373,3.76992 6.61814,7.52197 0.15756,0.76335 0.22603,1.6134 0.22714,2.81967 l 0.002,1.72687 h -7.69214 -7.69213 l 0.0685,0.39384 c 0.2933,1.68662 0.89042,2.85904 1.97632,3.88039 1.3852,1.30288 2.72113,1.78495 4.94647,1.78495 1.07059,0 1.53752,-0.0556 2.12555,-0.2533 1.18641,-0.3988 2.49995,-1.04245 3.18891,-1.56262 0.46964,-0.35458 0.66184,-0.43975 0.74609,-0.33061 0.0624,0.0808 0.56398,0.90081 1.11457,1.82214 l 1.00109,1.67514 -0.27133,0.28882 c -0.43694,0.4651 -1.85582,1.36838 -2.96862,1.88985 -2.06607,0.96819 -5.42056,1.4135 -7.75766,1.02982 z m 5.76112,-14.7259 c 0,-0.91077 -0.44119,-2.00571 -1.09754,-2.72387 -1.02481,-1.1213 -2.24674,-1.5336 -3.85361,-1.30026 -1.28133,0.18607 -2.50529,0.79963 -3.21611,1.6122 -0.57318,0.65523 -1.20385,1.82446 -1.3431,2.49005 l -0.0824,0.39385 h 4.79639 4.79638 z"
       id="path24" />
    <path
       style="fill:#ffffff;fill-opacity:1;stroke-width:0.121184"
       d="m 115.85595,180.47485 c -0.0458,-0.11777 -2.12694,-5.77645 -4.62476,-12.57486 -5.08718,-13.84596 -4.71481,-13.02725 -5.92495,-13.02725 h -0.6646 v -2.37552 -2.37552 l 2.45397,0.0467 c 2.16028,0.0411 2.51971,0.0766 3.0033,0.29695 0.64672,0.29466 1.14156,0.84195 1.51974,1.68079 0.41276,0.91557 6.40199,18.34932 6.82821,19.87588 0.20443,0.7322 0.37204,1.53576 0.37248,1.78571 5.1e-4,0.29303 0.0571,0.45443 0.15925,0.45443 0.10325,0 0.31326,-0.62279 0.60275,-1.78746 0.50558,-2.03404 6.71814,-20.16101 7.18077,-20.952 0.69379,-1.18622 1.29593,-1.37609 4.36413,-1.37609 h 2.11475 v 2.36308 2.36308 h -0.65975 c -0.51724,0 -0.73106,0.0613 -0.98984,0.28393 -0.27266,0.23453 -1.13618,2.47464 -4.96337,12.87577 l -4.63328,12.59184 -3.02776,0.0323 c -2.79977,0.0299 -3.03403,0.0162 -3.11104,-0.18177 z"
       id="path25" />
    <path
       style="fill:#ffffff;fill-opacity:1;stroke-width:0.121184"
       d="m 118.21421,211.10197 v -12.96665 h -1.4542 -1.45421 v -2.36806 -2.36805 l 9.24026,0.0353 c 10.15844,0.0388 9.71623,0.006 10.43786,0.77923 0.57112,0.61213 0.68074,1.27647 0.68074,4.12538 v 2.58345 h -2.47257 -2.47256 l -0.042,-1.16208 c -0.0618,-1.71096 0.13628,-1.62514 -3.75152,-1.62514 h -3.13735 v 4.4232 4.42321 h 4.84735 4.84735 v 2.30249 2.30249 h -4.84735 -4.84735 v 6.24096 6.24096 h -2.78722 -2.78723 z"
       id="path26" />
    <path
       style="fill:#ffffff;fill-opacity:1;stroke-width:0.121184"
       d="m 148.14658,224.5473 c -1.07409,-0.13256 -2.71101,-0.5832 -3.68813,-1.01534 -3.05736,-1.3521 -5.59244,-4.38649 -6.38553,-7.64323 -0.37532,-1.5412 -0.37532,-4.03325 0,-5.57445 0.66407,-2.72692 2.47148,-5.23638 4.91684,-6.82669 3.97517,-2.5852 9.76172,-2.56016 13.72359,0.0594 1.02339,0.67665 2.46491,2.09715 3.18447,3.13803 1.38007,1.99634 1.87303,3.6851 1.87303,6.4165 0,2.03223 -0.23293,3.27444 -0.88274,4.70756 -1.11965,2.46933 -3.56286,4.81659 -6.1227,5.88226 -1.83039,0.76199 -4.54054,1.11248 -6.61883,0.85598 z m 3.46242,-4.84351 c 2.21837,-0.56736 4.00177,-2.33204 4.60035,-4.55203 0.25801,-0.95693 0.25801,-3.14358 0,-4.10051 -0.60312,-2.23686 -2.4879,-4.0931 -4.6809,-4.61003 -3.4697,-0.81786 -6.6674,0.95724 -7.79947,4.32964 -0.42157,1.25581 -0.5368,3.23884 -0.25162,4.33017 0.40341,1.54382 1.31272,2.82308 2.67087,3.75751 1.52525,1.0494 3.47971,1.35192 5.46077,0.84525 z"
       id="path27" />
    <path
       style="fill:#ffffff;fill-opacity:1;stroke-width:0.121184"
       d="m 172.80746,224.22646 c -2.10427,-0.27909 -3.89313,-1.48719 -4.80942,-3.24802 -0.93678,-1.8002 -1.18655,-3.82707 -1.18807,-9.64123 -9e-4,-3.42348 -0.0325,-4.23092 -0.17304,-4.42321 -0.14366,-0.19656 -0.35285,-0.24219 -1.27242,-0.27758 l -1.1005,-0.0424 v -2.29043 -2.29043 h 2.6495 c 1.45723,0 2.94094,0.0553 3.29715,0.12282 0.84899,0.16101 1.38685,0.53945 1.72002,1.2102 0.26751,0.53858 0.2717,0.62625 0.33823,7.08924 0.048,4.66552 0.10984,6.67184 0.21534,6.98955 0.2203,0.6635 0.87675,1.57477 1.31857,1.83044 0.88574,0.51256 2.92393,0.49397 4.33672,-0.0395 1.06098,-0.40067 2.27654,-1.64741 2.94855,-3.02421 0.92408,-1.8932 0.91109,-1.78055 0.96054,-8.33138 l 0.0441,-5.84711 h 2.65866 2.65866 v 8.42777 8.42778 l 0.29746,0.29745 c 0.2694,0.2694 0.3951,0.29745 1.33302,0.29745 h 1.03557 v 2.25095 2.25095 l -3.12048,-0.0394 c -3.06897,-0.0387 -3.12938,-0.0444 -3.65962,-0.34231 -0.82903,-0.46586 -1.02516,-0.90872 -1.09684,-2.47654 l -0.0606,-1.32531 -0.47731,0.77998 c -1.41952,2.3196 -4.25566,3.77554 -7.26753,3.73082 -0.67251,-0.01 -1.38635,-0.0399 -1.5863,-0.0664 z"
       id="path28" />
    <path
       style="fill:#ffffff;fill-opacity:1;stroke-width:0.121184"
       d="m 194.55993,215.7298 c 0,-9.95153 0.16244,-8.99044 -1.51952,-8.99044 h -1.02534 v -2.30249 -2.30249 h 2.70464 c 3.12098,0 3.7586,0.11561 4.40236,0.7982 0.49851,0.52857 0.64659,1.23122 0.65666,3.11594 l 0.008,1.47853 0.41516,-0.89197 c 1.09591,-2.35454 2.91402,-4.02284 4.96675,-4.55751 0.39182,-0.10206 1.16446,-0.18556 1.717,-0.18556 h 1.0046 v 2.66604 2.66605 l -0.93918,0.002 c -2.50799,0.005 -4.73371,1.28176 -5.81276,3.33501 -0.93573,1.78053 -1.125,3.31349 -1.125,9.11164 v 4.51727 h -2.72664 -2.72663 z"
       id="path29" />
    <path
       style="fill:#ffffff;fill-opacity:1;stroke-width:0.121184"
       d="m 214.49465,224.24023 c -2.36886,-0.5246 -4.33071,-2.18969 -5.14537,-4.36705 -0.33875,-0.90538 -0.52164,-2.63026 -0.36636,-3.45516 0.27223,-1.44619 1.24893,-2.85106 2.58274,-3.71497 1.0772,-0.69769 2.66892,-1.39286 3.92152,-1.71268 1.34567,-0.34358 3.82852,-0.61311 5.6597,-0.6144 l 1.56251,-0.001 -0.0812,-0.97337 c -0.0967,-1.15886 -0.4354,-2.13444 -0.8932,-2.57236 -0.1831,-0.17514 -0.6601,-0.47149 -1.06001,-0.65855 -0.67507,-0.31577 -0.8355,-0.34011 -2.24189,-0.34011 -1.32908,0 -1.58309,0.0336 -2.07178,0.27445 -0.65855,0.3245 -0.83663,0.65422 -0.83663,1.54901 v 0.66081 h -2.49616 -2.49615 l 0.046,-1.60569 c 0.0419,-1.46297 0.0752,-1.66188 0.37552,-2.23803 0.34355,-0.6592 1.13579,-1.3484 2.11463,-1.83961 0.95094,-0.4772 2.87364,-0.86784 4.63749,-0.94223 3.719,-0.15683 6.38841,0.62321 8.12255,2.37352 0.88985,0.89815 1.42701,1.82768 1.82741,3.16225 0.25964,0.86541 0.27568,1.16513 0.34184,6.38744 0.0639,5.04284 0.0866,5.49666 0.28568,5.69564 0.16751,0.16746 0.46119,0.22575 1.30272,0.25855 l 1.08646,0.0424 v 2.22984 2.22984 h -2.59949 c -3.08258,0 -3.65844,-0.0948 -4.30162,-0.70836 -0.52353,-0.4994 -0.73177,-1.08534 -0.73279,-2.0619 l -6.7e-4,-0.64955 -0.52707,0.71014 c -0.55051,0.74173 -1.78273,1.96984 -2.19957,2.19223 -0.1333,0.0711 -0.67862,0.27579 -1.21183,0.45483 -1.24287,0.41733 -3.30459,0.52218 -4.60498,0.23421 z m 5.2109,-4.35826 c 1.3977,-0.68337 2.61939,-2.23942 2.94491,-3.75087 0.25138,-1.16723 0.2963,-2.11687 0.10362,-2.19081 -0.0964,-0.037 -1.06709,-0.0109 -2.15719,0.0579 -2.12556,0.13421 -3.44401,0.40305 -4.43204,0.90372 -0.61217,0.31021 -1.41299,1.08959 -1.52939,1.48844 -0.31876,1.09229 -0.3336,1.27682 -0.1527,1.89876 0.1288,0.44286 0.34099,0.78421 0.71648,1.15261 0.73999,0.72601 1.22953,0.88145 2.62796,0.83444 0.98041,-0.033 1.25914,-0.0915 1.87835,-0.3942 z"
       id="path30" />
    <path
       style="fill:#ffffff;fill-opacity:1;stroke-width:0.121184"
       d="m 241.21565,233.26137 c -0.8744,-0.0568 -1.91981,-0.22425 -2.80597,-0.44953 -1.58736,-0.40354 -3.55877,-1.25852 -3.46095,-1.50097 0.0339,-0.0841 0.40003,-1.0156 0.8135,-2.0699 0.46966,-1.19754 0.80402,-1.89382 0.891,-1.85538 1.88825,0.83445 2.87868,1.108 4.71166,1.30133 1.5229,0.16063 3.21867,0.008 4.26871,-0.3853 0.85457,-0.31974 2.03099,-1.18627 2.43088,-1.79053 0.66739,-1.0085 0.81917,-1.63691 0.88048,-3.64546 l 0.0571,-1.86951 -0.84393,0.85573 c -1.84133,1.86708 -4.7695,2.53788 -7.79074,1.78475 -3.84776,-0.95917 -6.68738,-4.40115 -7.27522,-8.81848 -0.17661,-1.32715 0.0162,-4.34415 0.3646,-5.70458 0.53799,-2.10082 1.44346,-3.70976 2.90508,-5.16204 1.61683,-1.6065 3.3752,-2.26359 6.36862,-2.37991 1.64688,-0.064 1.72969,-0.0552 2.82686,0.30087 0.62166,0.20174 1.47678,0.59255 1.90027,0.86847 0.76685,0.49962 1.87739,1.57144 1.87739,1.81193 0,0.0695 0.0478,0.12638 0.10617,0.12638 0.0584,0 0.13034,-0.2913 0.15986,-0.64732 0.0644,-0.77719 0.39551,-1.2925 1.0343,-1.60994 0.40116,-0.19935 0.81491,-0.23165 3.39553,-0.26511 l 2.93871,-0.0381 v 2.31029 2.31029 h -0.96158 c -1.2608,0 -1.5357,0.11197 -1.6965,0.69104 -0.0838,0.30185 -0.12803,3.30239 -0.12847,8.72033 -7.3e-4,8.90344 -0.0232,9.27872 -0.64775,10.82499 -0.50362,1.24683 -1.06803,2.07972 -2.14015,3.15819 -0.90141,0.90675 -1.20412,1.12251 -2.42368,1.7275 -1.5518,0.76981 -3.2728,1.267 -4.72616,1.36536 -0.49988,0.0338 -1.07247,0.0758 -1.27243,0.0933 -0.19995,0.0175 -0.99067,-0.009 -1.75716,-0.0587 z m 4.4232,-14.42577 c 1.29423,-0.32353 2.62085,-1.47791 3.06614,-2.66804 0.42048,-1.12384 0.54267,-2.15921 0.48133,-4.07844 -0.045,-1.40819 -0.11222,-1.93757 -0.32537,-2.56253 -0.57158,-1.67594 -1.55473,-2.68455 -3.10091,-3.18124 -0.72001,-0.23129 -1.09569,-0.27044 -2.48427,-0.25888 -2.28887,0.0191 -2.41091,0.073 -3.35899,1.48345 -1.08439,1.61328 -1.30704,2.39169 -1.30492,4.56211 0.002,1.89531 0.16793,2.72515 0.80398,4.01716 1.07414,2.18188 3.70245,3.31649 6.22301,2.68641 z"
       id="path31" />
    <path
       style="fill:#ffffff;fill-opacity:1;stroke-width:0.121184"
       d="m 269.51204,224.70884 c -5.11057,-0.71098 -9.13764,-4.91138 -9.6498,-10.06515 -0.0711,-0.7149 -0.17762,-1.3933 -0.23683,-1.50755 -0.16309,-0.31469 0.11201,-2.66746 0.4471,-3.82377 1.4069,-4.85492 5.85289,-7.88065 11.19669,-7.61996 2.57463,0.1256 4.33218,0.81068 5.90313,2.30099 1.46554,1.39031 2.5763,3.41486 3.00251,5.47259 0.11044,0.53321 0.23237,1.77383 0.27096,2.75693 l 0.0702,1.78746 h -7.71356 -7.71357 v 0.31577 c 0,0.49317 0.3519,1.72942 0.67222,2.36153 0.37458,0.73919 1.47039,1.921 2.23787,2.41349 0.3305,0.21209 0.99702,0.52613 1.48116,0.69788 0.76169,0.27021 1.08426,0.313 2.39504,0.31768 1.16861,0.004 1.66712,-0.0461 2.18131,-0.22017 1.08685,-0.36783 2.55892,-1.09433 3.26954,-1.6136 l 0.6641,-0.48526 1.10606,1.83274 c 1.28358,2.1269 1.30371,1.89382 -0.25236,2.92198 -1.73505,1.14643 -2.87765,1.61172 -4.94312,2.01295 -1.11333,0.21627 -3.34166,0.28912 -4.38861,0.14347 z m 5.36446,-15.21997 c -0.0787,-0.98042 -0.4202,-1.74322 -1.11112,-2.48187 -1.09631,-1.17204 -2.67364,-1.60555 -4.31593,-1.18617 -1.13762,0.29051 -1.7948,0.64346 -2.49175,1.33826 -0.59693,0.59507 -1.39494,2.00887 -1.55862,2.76134 l -0.0725,0.33326 h 4.80566 4.80565 z"
       id="path32" />
  </g>
</svg>
